<svg xmlns="http://www.w3.org/2000/svg" width="1200" height="700" viewBox="0 0 1200 700"><rect width="1200" height="700" rx="24" fill="#F8F7F2"/><rect x="18" y="18" width="1164" height="664" rx="22" fill="#FFFFFF" stroke="#B9C8CE" stroke-width="2"/><circle cx="150" cy="180" r="62" fill="#EAF1F3" stroke="#1F6670" stroke-width="3"/><text x="150" y="177" font-family="Arial,Helvetica,sans-serif" font-size="13" font-weight="700" fill="#17324D" text-anchor="middle">DEMAND</text><circle cx="380" cy="120" r="62" fill="#EAF1F3" stroke="#1F6670" stroke-width="3"/><text x="380" y="117" font-family="Arial,Helvetica,sans-serif" font-size="13" font-weight="700" fill="#17324D" text-anchor="middle">PLAN</text><circle cx="610" cy="180" r="62" fill="#EAF1F3" stroke="#1F6670" stroke-width="3"/><text x="610" y="177" font-family="Arial,Helvetica,sans-serif" font-size="13" font-weight="700" fill="#17324D" text-anchor="middle">SOURCE</text><circle cx="840" cy="120" r="62" fill="#EAF1F3" stroke="#1F6670" stroke-width="3"/><text x="840" y="117" font-family="Arial,Helvetica,sans-serif" font-size="13" font-weight="700" fill="#17324D" text-anchor="middle">RECEIVE</text><circle cx="1030" cy="230" r="62" fill="#EAF1F3" stroke="#1F6670" stroke-width="3"/><text x="1030" y="227" font-family="Arial,Helvetica,sans-serif" font-size="13" font-weight="700" fill="#17324D" text-anchor="middle">STORE</text><circle cx="840" cy="410" r="62" fill="#EAF1F3" stroke="#1F6670" stroke-width="3"/><text x="840" y="407" font-family="Arial,Helvetica,sans-serif" font-size="13" font-weight="700" fill="#17324D" text-anchor="middle">ISSUE</text><circle cx="560" cy="480" r="62" fill="#EAF1F3" stroke="#1F6670" stroke-width="3"/><text x="560" y="477" font-family="Arial,Helvetica,sans-serif" font-size="13" font-weight="700" fill="#17324D" text-anchor="middle">CONSUME</text><circle cx="280" cy="410" r="62" fill="#EAF1F3" stroke="#1F6670" stroke-width="3"/><text x="280" y="407" font-family="Arial,Helvetica,sans-serif" font-size="13" font-weight="700" fill="#17324D" text-anchor="middle">REVIEW</text><line x1="150" y1="180" x2="380" y2="120" stroke="#1F6670" stroke-width="3"/><polygon points="380,120 370.74698752398393,129.13136135078946 367.46550286107293,116.55233680963049" fill="#1F6670"/><line x1="380" y1="120" x2="610" y2="180" stroke="#1F6670" stroke-width="3"/><polygon points="610,180 597.4655028610729,183.44766319036952 600.746987523984,170.86863864921054" fill="#1F6670"/><line x1="610" y1="180" x2="840" y2="120" stroke="#1F6670" stroke-width="3"/><polygon points="840,120 830.746987523984,129.13136135078946 827.4655028610729,116.55233680963049" fill="#1F6670"/><line x1="840" y1="120" x2="1030" y2="230" stroke="#1F6670" stroke-width="3"/><polygon points="1030,230 1017.000009313196,229.98443905504243 1023.5134808302381,218.73389734378782" fill="#1F6670"/><line x1="1030" y1="230" x2="840" y2="410" stroke="#1F6670" stroke-width="3"/><polygon points="840,410 843.7026748492831,397.5384511813143 852.6433552721234,406.9758360720901" fill="#1F6670"/><line x1="840" y1="410" x2="560" y2="480" stroke="#1F6670" stroke-width="3"/><polygon points="560,480 569.3457030926824,470.9635275852007 572.4986662181547,483.57538008709" fill="#1F6670"/><line x1="560" y1="480" x2="280" y2="410" stroke="#1F6670" stroke-width="3"/><polygon points="280,410 292.49866621815465,406.42461991291 289.3457030926823,419.0364724147993" fill="#1F6670"/><line x1="280" y1="410" x2="150" y2="180" stroke="#1F6670" stroke-width="3"/><polygon points="150,180 161.19840154876235,186.60271177264895 149.88108464540062,192.99945610933167" fill="#1F6670"/><text x="600" y="625" font-family="Arial,Helvetica,sans-serif" font-size="15" font-weight="600" fill="#2F3941" text-anchor="middle">Material flow is planned, sourced, controlled, consumed and reviewed as one system.</text></svg>