<svg xmlns="http://www.w3.org/2000/svg" width="1200" height="700" viewBox="0 0 1200 700"><rect width="1200" height="700" rx="24" fill="#F8F7F2"/><rect x="18" y="18" width="1164" height="664" rx="22" fill="#FFFFFF" stroke="#B9C8CE" stroke-width="2"/><circle cx="180" cy="250" r="72" fill="#EAF1F3" stroke="#1F6670" stroke-width="3"/><rect x="135" y="220" width="90" height="60" rx="8" fill="#FFFFFF" stroke="#B9C8CE" stroke-width="2"/><text x="180" y="255" font-family="Arial,Helvetica,sans-serif" font-size="12" font-weight="700" fill="#17324D" text-anchor="middle">KANBAN</text><text x="180" y="350" font-family="Arial,Helvetica,sans-serif" font-size="13" font-weight="700" fill="#17324D" text-anchor="middle">CUSTOMER</text><circle cx="440" cy="150" r="72" fill="#EAF1F3" stroke="#1F6670" stroke-width="3"/><rect x="395" y="120" width="90" height="60" rx="8" fill="#FFFFFF" stroke="#B9C8CE" stroke-width="2"/><text x="440" y="155" font-family="Arial,Helvetica,sans-serif" font-size="12" font-weight="700" fill="#17324D" text-anchor="middle">KANBAN</text><text x="440" y="250" font-family="Arial,Helvetica,sans-serif" font-size="13" font-weight="700" fill="#17324D" text-anchor="middle">SUPERMARKET</text><circle cx="720" cy="150" r="72" fill="#EAF1F3" stroke="#1F6670" stroke-width="3"/><rect x="675" y="120" width="90" height="60" rx="8" fill="#FFFFFF" stroke="#B9C8CE" stroke-width="2"/><text x="720" y="155" font-family="Arial,Helvetica,sans-serif" font-size="12" font-weight="700" fill="#17324D" text-anchor="middle">KANBAN</text><text x="720" y="250" font-family="Arial,Helvetica,sans-serif" font-size="13" font-weight="700" fill="#17324D" text-anchor="middle">SIGNAL</text><circle cx="980" cy="250" r="72" fill="#EAF1F3" stroke="#1F6670" stroke-width="3"/><rect x="935" y="220" width="90" height="60" rx="8" fill="#FFFFFF" stroke="#B9C8CE" stroke-width="2"/><text x="980" y="255" font-family="Arial,Helvetica,sans-serif" font-size="12" font-weight="700" fill="#17324D" text-anchor="middle">KANBAN</text><text x="980" y="350" font-family="Arial,Helvetica,sans-serif" font-size="13" font-weight="700" fill="#17324D" text-anchor="middle">SUPPLIER</text><circle cx="720" cy="430" r="72" fill="#EAF1F3" stroke="#1F6670" stroke-width="3"/><rect x="675" y="400" width="90" height="60" rx="8" fill="#FFFFFF" stroke="#B9C8CE" stroke-width="2"/><text x="720" y="435" font-family="Arial,Helvetica,sans-serif" font-size="12" font-weight="700" fill="#17324D" text-anchor="middle">KANBAN</text><text x="720" y="530" font-family="Arial,Helvetica,sans-serif" font-size="13" font-weight="700" fill="#17324D" text-anchor="middle">PRODUCTION</text><circle cx="440" cy="430" r="72" fill="#EAF1F3" stroke="#1F6670" stroke-width="3"/><rect x="395" y="400" width="90" height="60" rx="8" fill="#FFFFFF" stroke="#B9C8CE" stroke-width="2"/><text x="440" y="435" font-family="Arial,Helvetica,sans-serif" font-size="12" font-weight="700" fill="#17324D" text-anchor="middle">KANBAN</text><text x="440" y="530" font-family="Arial,Helvetica,sans-serif" font-size="13" font-weight="700" fill="#17324D" text-anchor="middle">POINT OF USE</text><line x1="180" y1="250" x2="440" y2="150" stroke="#1F6670" stroke-width="3"/><polygon points="440,150 431.82545094423597,160.10825146773206 427.1587229132207,147.97475858709228" fill="#1F6670"/><line x1="440" y1="150" x2="720" y2="150" stroke="#1F6670" stroke-width="3"/><polygon points="720,150 708.7416697508023,156.5 708.7416697508023,143.5" fill="#1F6670"/><line x1="720" y1="150" x2="980" y2="250" stroke="#1F6670" stroke-width="3"/><polygon points="980,250 967.1587229132207,252.02524141290772 971.825450944236,239.89174853226794" fill="#1F6670"/><line x1="980" y1="250" x2="720" y2="430" stroke="#1F6670" stroke-width="3"/><polygon points="720,430 725.5566463594403,418.247396831505 732.9563760842343,428.9358953228741" fill="#1F6670"/><line x1="720" y1="430" x2="440" y2="430" stroke="#1F6670" stroke-width="3"/><polygon points="440,430 451.2583302491977,423.5 451.2583302491977,436.5" fill="#1F6670"/><line x1="440" y1="430" x2="180" y2="250" stroke="#1F6670" stroke-width="3"/><polygon points="180,250 192.9563760842343,251.06410467712587 185.55664635944032,261.752603168495" fill="#1F6670"/><text x="600" y="625" font-family="Arial,Helvetica,sans-serif" font-size="15" font-weight="600" fill="#2F3941" text-anchor="middle">Pull replenishment: consumption creates the signal for the next supply.</text></svg>