<svg xmlns="http://www.w3.org/2000/svg" width="1200" height="700" viewBox="0 0 1200 700"><rect width="1200" height="700" fill="#F6F5F0"/><rect x="18" y="18" width="1164" height="664" rx="26" fill="#FFFFFF" stroke="#C8DDE3" stroke-width="2"/><path d="M18 18 H1182 V118" fill="none" stroke="#D9E8EC" stroke-width="2"/><path d="M18 682 H1182 V580" fill="none" stroke="#D9E8EC" stroke-width="2"/><path d="M960 18 L1182 18 L1182 205" fill="#EAF3F6" opacity=".8"/><path d="M18 495 L205 682 L18 682" fill="#EAF3F6" opacity=".65"/><rect x="45" y="62" width="1110" height="55" rx="14" fill="#FFFFFF" stroke="#C8DDE3" stroke-width="2"/><text x="68" y="86" font-family="Arial,Helvetica,sans-serif" font-size="12" font-weight="700" fill="#0E7182" text-anchor="start">INDUSTRIAL MATERIALS MANAGEMENT</text><text x="68" y="108" font-family="Arial,Helvetica,sans-serif" font-size="12" font-weight="600" fill="#6D7D83" text-anchor="start">Subject infographic</text><rect x="45" y="140" width="250" height="112" rx="16" fill="#FFFFFF" stroke="#C8DDE3" stroke-width="2"/><rect x="60" y="158" width="105" height="72" rx="12" fill="#EAF3F6" stroke="#C8DDE3" stroke-width="2"/><rect x="90" y="168" width="45" height="53" rx="4" fill="#FFFFFF" stroke="#0E7182" stroke-width="3"/><line x1="99" y1="183" x2="126" y2="183" stroke="#0E7182" stroke-width="3"/><line x1="99" y1="196" x2="126" y2="196" stroke="#0E7182" stroke-width="3"/><line x1="99" y1="209" x2="126" y2="209" stroke="#0E7182" stroke-width="3"/><text x="180" y="185" font-family="Arial,Helvetica,sans-serif" font-size="15" font-weight="700" fill="#063B4A" text-anchor="start">Kanban Card</text><text x="180" y="208" font-family="Arial,Helvetica,sans-serif" font-size="10" font-weight="700" fill="#0E7182" text-anchor="start">INPUT</text><rect x="45" y="270" width="250" height="112" rx="16" fill="#FFFFFF" stroke="#C8DDE3" stroke-width="2"/><rect x="60" y="288" width="105" height="72" rx="12" fill="#EAF3F6" stroke="#C8DDE3" stroke-width="2"/><circle cx="112" cy="324" r="24" fill="#FFFFFF" stroke="#0E7182" stroke-width="4"/><path d="M98 324 l10 10 l20-23" fill="none" stroke="#EA741C" stroke-width="5"/><text x="180" y="315" font-family="Arial,Helvetica,sans-serif" font-size="15" font-weight="700" fill="#063B4A" text-anchor="start">Pull Signal</text><text x="180" y="338" font-family="Arial,Helvetica,sans-serif" font-size="10" font-weight="700" fill="#0E7182" text-anchor="start">PARAMETER</text><rect x="45" y="400" width="250" height="112" rx="16" fill="#FFFFFF" stroke="#C8DDE3" stroke-width="2"/><rect x="60" y="418" width="105" height="72" rx="12" fill="#EAF3F6" stroke="#C8DDE3" stroke-width="2"/><path d="M75 461 H125 V448 H140 L151 461 V473 H75 Z" fill="#FFFFFF" stroke="#0E7182" stroke-width="3"/><circle cx="92" cy="476" r="6" fill="#FFFFFF" stroke="#0E7182" stroke-width="3"/><circle cx="138" cy="476" r="6" fill="#FFFFFF" stroke="#0E7182" stroke-width="3"/><text x="180" y="445" font-family="Arial,Helvetica,sans-serif" font-size="15" font-weight="700" fill="#063B4A" text-anchor="start">Replenish</text><text x="180" y="468" font-family="Arial,Helvetica,sans-serif" font-size="10" font-weight="700" fill="#0E7182" text-anchor="start">CONTROL</text><rect x="315" y="135" width="615" height="420" rx="18" fill="#FFFFFF" stroke="#C8DDE3" stroke-width="2"/><line x1="370" y1="490" x2="870" y2="490" stroke="#063B4A" stroke-width="4"/><line x1="370" y1="205" x2="370" y2="490" stroke="#063B4A" stroke-width="4"/><rect x="440" y="305" width="105" height="135" rx="14" fill="#EAF3F6" stroke="#BBD5DC" stroke-width="2"/><text x="492" y="335" font-family="Arial,Helvetica,sans-serif" font-size="13" font-weight="700" fill="#063B4A" text-anchor="middle">BIN 1</text><rect x="460" y="365" width="17" height="35" rx="4" fill="#FFFFFF" stroke="#0E7182" stroke-width="2"/><rect x="483" y="365" width="17" height="35" rx="4" fill="#FFFFFF" stroke="#0E7182" stroke-width="2"/><rect x="506" y="365" width="17" height="35" rx="4" fill="#FFFFFF" stroke="#0E7182" stroke-width="2"/><line x1="548" y1="373" x2="580" y2="373" stroke="#EA741C" stroke-width="3"/><polygon points="580,373 569,366 569,380" fill="#EA741C"/><rect x="590" y="305" width="105" height="135" rx="14" fill="#EAF3F6" stroke="#BBD5DC" stroke-width="2"/><text x="642" y="335" font-family="Arial,Helvetica,sans-serif" font-size="13" font-weight="700" fill="#063B4A" text-anchor="middle">BIN 2</text><rect x="610" y="365" width="17" height="35" rx="4" fill="#FFFFFF" stroke="#0E7182" stroke-width="2"/><rect x="633" y="365" width="17" height="35" rx="4" fill="#FFFFFF" stroke="#0E7182" stroke-width="2"/><rect x="656" y="365" width="17" height="35" rx="4" fill="#FFFFFF" stroke="#0E7182" stroke-width="2"/><rect x="950" y="135" width="205" height="420" rx="16" fill="#FFFFFF" stroke="#C8DDE3" stroke-width="2"/><rect x="950" y="135" width="205" height="45" rx="16" fill="#0E7182" stroke="#0E7182" stroke-width="2"/><text x="1052" y="164" font-family="Arial,Helvetica,sans-serif" font-size="16" font-weight="700" fill="#FFFFFF" text-anchor="middle">CONTROL</text><circle cx="980" cy="215" r="15" fill="#FFFFFF" stroke="#0E7182" stroke-width="2"/><text x="1010" y="220" font-family="Arial,Helvetica,sans-serif" font-size="12" font-weight="600" fill="#063B4A" text-anchor="start">Visual signal</text><circle cx="980" cy="300" r="15" fill="#FFFFFF" stroke="#0E7182" stroke-width="2"/><text x="1010" y="305" font-family="Arial,Helvetica,sans-serif" font-size="12" font-weight="600" fill="#063B4A" text-anchor="start">Pull replenishment</text><circle cx="980" cy="385" r="15" fill="#FFFFFF" stroke="#0E7182" stroke-width="2"/><text x="1010" y="390" font-family="Arial,Helvetica,sans-serif" font-size="12" font-weight="600" fill="#063B4A" text-anchor="start">Limit WIP</text><rect x="30" y="600" width="1140" height="65" rx="15" fill="#FFFFFF" stroke="#C8DDE3" stroke-width="2"/><rect x="53.0" y="594" width="105" height="72" rx="12" fill="#EAF3F6" stroke="#C8DDE3" stroke-width="2"/><rect x="83.0" y="604" width="45" height="53" rx="4" fill="#FFFFFF" stroke="#0E7182" stroke-width="3"/><line x1="92.0" y1="619" x2="119.0" y2="619" stroke="#0E7182" stroke-width="3"/><line x1="92.0" y1="632" x2="119.0" y2="632" stroke="#0E7182" stroke-width="3"/><line x1="92.0" y1="645" x2="119.0" y2="645" stroke="#0E7182" stroke-width="3"/><text x="130.0" y="654" font-family="Arial,Helvetica,sans-serif" font-size="11" font-weight="700" fill="#063B4A" text-anchor="middle">INPUT</text><line x1="219.0" y1="630" x2="229.0" y2="630" stroke="#0E7182" stroke-width="2"/><polygon points="229.0,630 218.0,623 218.0,637" fill="#0E7182"/><rect x="241.0" y="594" width="105" height="72" rx="12" fill="#EAF3F6" stroke="#C8DDE3" stroke-width="2"/><rect x="259.0" y="630" width="13" height="22" rx="2" fill="#0E7182"/><rect x="279.0" y="614" width="13" height="38" rx="2" fill="#0E7182"/><rect x="299.0" y="597" width="13" height="55" rx="2" fill="#0E7182"/><text x="318.0" y="654" font-family="Arial,Helvetica,sans-serif" font-size="11" font-weight="700" fill="#063B4A" text-anchor="middle">ANALYSE</text><line x1="407.0" y1="630" x2="417.0" y2="630" stroke="#0E7182" stroke-width="2"/><polygon points="417.0,630 406.0,623 406.0,637" fill="#0E7182"/><rect x="429.0" y="594" width="105" height="72" rx="12" fill="#EAF3F6" stroke="#C8DDE3" stroke-width="2"/><path d="M444.0 649 Q474.0 604 517.0 642" fill="none" stroke="#2E86A3" stroke-width="5"/><text x="506.0" y="654" font-family="Arial,Helvetica,sans-serif" font-size="11" font-weight="700" fill="#063B4A" text-anchor="middle">CALCULATE</text><line x1="595.0" y1="630" x2="605.0" y2="630" stroke="#0E7182" stroke-width="2"/><polygon points="605.0,630 594.0,623 594.0,637" fill="#0E7182"/><rect x="617.0" y="594" width="105" height="72" rx="12" fill="#EAF3F6" stroke="#C8DDE3" stroke-width="2"/><circle cx="669.0" cy="630" r="24" fill="#FFFFFF" stroke="#0E7182" stroke-width="4"/><path d="M655.0 630 l10 10 l20-23" fill="none" stroke="#EA741C" stroke-width="5"/><text x="694.0" y="654" font-family="Arial,Helvetica,sans-serif" font-size="11" font-weight="700" fill="#063B4A" text-anchor="middle">DECIDE</text><line x1="783.0" y1="630" x2="793.0" y2="630" stroke="#0E7182" stroke-width="2"/><polygon points="793.0,630 782.0,623 782.0,637" fill="#0E7182"/><rect x="805.0" y="594" width="105" height="72" rx="12" fill="#EAF3F6" stroke="#C8DDE3" stroke-width="2"/><path d="M820.0 637 H870.0 V624 H885.0 L896.0 637 V649 H820.0 Z" fill="#FFFFFF" stroke="#0E7182" stroke-width="3"/><circle cx="837.0" cy="652" r="6" fill="#FFFFFF" stroke="#0E7182" stroke-width="3"/><circle cx="883.0" cy="652" r="6" fill="#FFFFFF" stroke="#0E7182" stroke-width="3"/><text x="882.0" y="654" font-family="Arial,Helvetica,sans-serif" font-size="11" font-weight="700" fill="#063B4A" text-anchor="middle">ACT</text><line x1="971.0" y1="630" x2="981.0" y2="630" stroke="#0E7182" stroke-width="2"/><polygon points="981.0,630 970.0,623 970.0,637" fill="#0E7182"/><rect x="993.0" y="594" width="105" height="72" rx="12" fill="#EAF3F6" stroke="#C8DDE3" stroke-width="2"/><rect x="1011.0" y="630" width="13" height="22" rx="2" fill="#0E7182"/><rect x="1031.0" y="614" width="13" height="38" rx="2" fill="#0E7182"/><rect x="1051.0" y="597" width="13" height="55" rx="2" fill="#0E7182"/><text x="1070.0" y="654" font-family="Arial,Helvetica,sans-serif" font-size="11" font-weight="700" fill="#063B4A" text-anchor="middle">REVIEW</text></svg>